<svg id="Layer_1" xmlns="http://www.w3.org/2000/svg" width="1000" height="1000" viewBox="194 -104 1000 1000"><style>.st0{fill:#5596E6;} .st1{fill:#FFFFFF;} .st2{fill:#264A60;} .st3{fill:#325C80;}</style><circle class="st0" cx="694" cy="396" r="500"/><path class="st1" d="M370.9 104.7h316.9v316.9H370.9V104.7z"/><path class="st2" d="M709.6 706.6c-125.6 0-234.4-85.6-263.8-206.9l33.1-7.5c25.6 106.9 121.2 181.2 230 181.2 20 0 40.6-2.5 60-7.5L777 699c-21.1 4.5-44.2 7.6-67.4 7.6zm-270-133.7L409 558.5l47.5-105 109.4 46.3-13.2 30.6-78.7-31.9-34.4 74.4z"/><path class="st1" d="M936.5 364.8C905.3 265.4 814 197.9 710.2 197.9c-16.3 0-32.5 1.9-48.1 4.4l-6.9-33.7c18.1-3.8 36.2-5.6 55-5.6 119.4 0 223.7 76.9 259.4 190.6l-33.1 11.2zm23.1 34.3l-109.4-45.6 13.8-31.2 78.7 32.4 34.4-74.3 31.3 14.3-48.8 104.4z"/><circle class="st3" cx="879.6" cy="585.4" r="170"/><path class="st1" d="M915.3 610.4c-11.4 0-21.2-2-28-6.6-8.6-6-10.8-14-10.8-25.4 0-5.5 2.5-12.3 5.5-17.9 5.4-9.8 15.1-18.6 25.2-18.6 12.5 0 22.5 9.7 30.5 29.5 2.9 8.8 6.9 24.5 6.9 37.4 0 8-.6 15.4-2.5 22-.8 5.1-6.3 12-11.4 16.6-15.1 13.4-38.2 25.9-64.5 25.9-30.3 0-58.2-20.6-58.2-58.2 0-15.7 3.5-31.5 9.2-43.4l6.5 1.7c-3.1 9.1-5.2 17.7-5.2 25.5 0 32.3 20 52.2 48.2 52.2 14.3 0 32.3-3.5 49.4-14.8 9.4-6.3 18.9-14.3 18.9-18.6 0-2.9-.9-6-2.2-8.9-4.9.9-10.9 1.6-17.5 1.6zm-29.5-90.7c-6.3-6-11.9-10.9-18-16 4-5.5 8.3-10.6 12.2-14.6 6.3 4.9 11.5 10 17.5 16.5-4.3 6.1-7.4 10.1-11.7 14.1zm18.9 42.2c-8.8 0-18.8 6.9-18.8 14.5 0 6.5 8.6 14.2 30.3 14.2 5.5 0 10-.2 13.9-.9-5.2-17.7-14-27.8-25.4-27.8zm10.8-44.2c-6.3-6-11.8-10.9-18-16 4-5.5 8.3-10.6 12.2-14.6 6.3 4.9 11.5 10 17.5 16.5-4.3 6.1-7.4 10.1-11.7 14.1z"/><path class="st3" d="M571.3 338.4c-11.5 6.6-25.4 9.9-41.9 9.9-13.2 0-25.2-2.3-35.7-6.9-10.6-4.6-19.5-10.9-26.8-19-7.3-8.1-12.8-17.6-16.7-28.5-3.9-10.9-5.8-22.7-5.8-35.3 0-12.9 1.9-24.9 5.8-36 3.9-11.1 9.4-20.7 16.7-29 7.3-8.2 16.2-14.7 26.8-19.4 10.6-4.7 22.5-7 35.7-7 13.4 0 25.4 2.3 35.9 7s19.4 11.1 26.7 19.4c7.3 8.2 12.8 17.9 16.7 29 3.9 11.1 5.8 23.1 5.8 36 0 12.6-1.9 24.3-5.8 35.1s-9.4 20.4-16.7 28.6l21.6 19.6-17.7 18.4-24.6-21.9zm-5.6-40c3.2-4.4 5.8-9.8 7.8-16.2 1.9-6.5 2.9-14.3 2.9-23.5 0-7.6-.8-14.9-2.5-22s-4.4-13.4-8.1-19c-3.7-5.6-8.6-10-14.5-13.3-6-3.3-13.2-5-21.8-5-8.6 0-15.8 1.7-21.8 5s-10.8 7.7-14.5 13.3c-3.7 5.6-6.4 11.9-8.1 19-1.7 7.1-2.5 14.4-2.5 22 0 7.3.8 14.3 2.5 21.2 1.7 6.9 4.4 13 8.1 18.5 3.7 5.5 8.6 9.9 14.5 13.2 6 3.3 13.2 5 21.8 5 4 0 7.1-.1 9.2-.4 2.1-.3 4.1-.9 6.1-1.7l-16.2-14.8 17.7-18.9 19.4 17.6z"/></svg>