<svg width="32" height="32" viewBox="0 0 32 32" xmlns="http://www.w3.org/2000/svg"><path d="M0 16.202C-.015 7.584 7.085.587 15.86.572c8.774-.016 15.9 6.958 15.914 15.575.015 8.618-7.085 15.616-15.86 15.63C7.142 31.795.015 24.82 0 16.203" fill-rule="evenodd" class="background"/><path d="M21.664 7.36c1.772 0 3.214 1.417 3.214 3.157s-1.442 3.157-3.214 3.157-3.214-1.416-3.214-3.157c0-1.74 1.442-3.156 3.214-3.156m0 6.81c2.05 0 3.718-1.64 3.718-3.653s-1.668-3.65-3.718-3.65-3.718 1.637-3.718 3.65c0 2.014 1.668 3.652 3.718 3.652" class="pictogram"/><path d="M21.668 9.15l.714 1.676H20.95l.718-1.676zm-1.608 3.11c.032.012.066.018.098.018.1 0 .192-.056.233-.15l.347-.807h1.857l.344.806c.052.127.2.186.33.133.127-.054.188-.2.134-.324l-1.5-3.52c-.04-.092-.132-.15-.233-.152-.103 0-.194.06-.234.152l-1.51 3.52c-.054.125.006.27.134.323zM6.93 24.99h6.397v-6.284H6.93v6.283zm6.65-6.78H6.677c-.14 0-.252.112-.252.25v6.777c0 .136.112.247.252.247h6.9c.14 0 .253-.11.253-.247V18.46c0-.138-.112-.25-.25-.25z" fill-rule="evenodd" class="pictogram"/><path d="M8.296 21.067h2.533c.006.363-.048 1.116-.548 1.677-.048.053-.11.093-.164.14-.27-.24-.465-.556-.58-.95-.038-.132-.175-.21-.31-.17-.135.037-.212.173-.174.305.107.367.306.762.64 1.096-.372.185-.822.29-1.37.29-.14 0-.252.11-.252.246 0 .138.113.248.252.248.726 0 1.324-.155 1.8-.446.433.265 1.01.446 1.808.446.14 0 .252-.11.252-.248 0-.136-.112-.246-.252-.246-.553 0-1.012-.1-1.385-.287.036-.036.08-.062.114-.1.61-.68.68-1.56.673-2.003h.627c.14 0 .252-.11.252-.247s-.112-.247-.252-.247h-1.58v-.58c0-.136-.113-.247-.252-.247-.14 0-.252.11-.252.247v.58h-1.58c-.14 0-.252.11-.252.247s.113.247.252.247M6.678 16.438c.14 0 .252-.11.252-.247v-5.608c0-.52.43-.944.96-.944h7.414l-1.89 1.855c-.097.096-.097.253 0 .35.05.048.115.072.18.072.064 0 .128-.024.177-.072l2.32-2.278c.023-.022.042-.05.054-.08.013-.03.02-.062.02-.094 0-.033-.007-.065-.02-.095-.012-.03-.03-.057-.054-.08l-2.32-2.277c-.097-.096-.257-.096-.355 0-.098.097-.098.254 0 .35l1.89 1.855H7.89c-.807 0-1.464.645-1.464 1.44v5.608c0 .138.113.248.252.248M25.13 15.912c-.14 0-.252.11-.252.247v5.607c0 .52-.43.945-.96.945h-7.414l1.89-1.855c.097-.097.097-.253 0-.35-.1-.096-.26-.096-.358 0l-2.318 2.277c-.004.004-.005.01-.01.013-.017.02-.034.042-.045.068-.01.025-.013.05-.016.077 0 .006-.003.01-.003.017 0 .006.003.01.003.017.003.026.006.052.016.077s.028.048.046.068c.003.004.004.01.008.013l2.318 2.277c.05.048.114.072.178.072.065 0 .13-.024.18-.072.097-.097.097-.253 0-.35l-1.89-1.855h7.413c.808 0 1.465-.646 1.465-1.44V16.16c0-.138-.113-.248-.252-.248" class="pictogram"/></svg>
