<?xml version="1.0" encoding="utf-8"?>
<!-- Generator: Adobe Illustrator 21.0.0, SVG Export Plug-In . SVG Version: 6.00 Build 0)  -->
<svg version="1.1" id="Layer_1" xmlns="http://www.w3.org/2000/svg" xmlns:xlink="http://www.w3.org/1999/xlink" x="0px" y="0px"
	 viewBox="0 0 31.8 31.2" style="enable-background:new 0 0 31.8 31.2;" xml:space="preserve">
<style type="text/css">
	.st0{fill:#B895F1;}
	.st1{fill:#FFFFFF;}
</style>
<path class="st0" d="M0,15.6C0,7,7.1,0,15.9,0c8.8,0,15.9,7,15.9,15.6c0,8.6-7.1,15.6-15.9,15.6C7.1,31.2,0,24.2,0,15.6"/>
<path class="st1" d="M21.7,6.8c1.8,0,3.2,1.4,3.2,3.2s-1.4,3.2-3.2,3.2s-3.2-1.4-3.2-3.2C18.5,8.2,19.9,6.8,21.7,6.8 M21.7,13.6
	c2,0,3.7-1.6,3.7-3.7s-1.7-3.6-3.7-3.6s-3.7,1.6-3.7,3.6C17.9,12,19.6,13.6,21.7,13.6 M23.4,11.4l-1.5-3.5c0-0.1-0.1-0.1-0.2-0.2
	c-0.1,0-0.2,0.1-0.2,0.2l-1.5,3.5c-0.1,0.1,0,0.3,0.1,0.3c0,0,0.1,0,0.1,0c0.1,0,0.2-0.1,0.2-0.2l0.3-0.8h1.9l0.3,0.8
	c0,0.1,0.2,0.2,0.3,0.1S23.5,11.5,23.4,11.4z M21,10.3l0.7-1.7l0.7,1.7H21z M13.6,17.6H6.7c-0.1,0-0.2,0.1-0.2,0.2v6.8
	c0,0.1,0.1,0.2,0.2,0.2h6.9c0.1,0,0.2-0.1,0.2-0.2v-6.8C13.8,17.7,13.7,17.6,13.6,17.6z M13.3,24.4H6.9v-6.3h6.4V24.4z M8.3,20.5
	h2.5c0,0.4,0,1.1-0.5,1.7c0,0.1-0.1,0.1-0.2,0.1c-0.3-0.2-0.5-0.6-0.6-1c0-0.1-0.2-0.2-0.3-0.2c-0.1,0-0.2,0.2-0.2,0.3
	c0.1,0.4,0.3,0.8,0.6,1.1c-0.4,0.2-0.8,0.3-1.4,0.3c-0.1,0-0.3,0.1-0.3,0.2c0,0.1,0.1,0.2,0.3,0.2c0.7,0,1.3-0.2,1.8-0.4
	c0.4,0.3,1,0.4,1.8,0.4c0.1,0,0.3-0.1,0.3-0.2c0-0.1-0.1-0.2-0.3-0.2c-0.6,0-1-0.1-1.4-0.3c0,0,0.1-0.1,0.1-0.1
	c0.6-0.7,0.7-1.6,0.7-2H12c0.1,0,0.3-0.1,0.3-0.2S12.1,20,12,20h-1.6v-0.6c0-0.1-0.1-0.2-0.3-0.2c-0.1,0-0.3,0.1-0.3,0.2V20H8.3
	C8.2,20,8,20.1,8,20.2S8.2,20.5,8.3,20.5L8.3,20.5z M6.7,15.9c0.1,0,0.3-0.1,0.3-0.2V10c0-0.5,0.4-0.9,1-0.9h7.4l-1.9,1.9
	c-0.1,0.1-0.1,0.3,0,0.4c0.1,0,0.1,0.1,0.2,0.1c0.1,0,0.1,0,0.2-0.1L16.1,9c0,0,0-0.1,0.1-0.1c0,0,0-0.1,0-0.1c0,0,0-0.1,0-0.1
	c0,0,0-0.1-0.1-0.1l-2.3-2.3c-0.1-0.1-0.3-0.1-0.4,0c-0.1,0.1-0.1,0.3,0,0.3l1.9,1.9H7.9c-0.8,0-1.5,0.6-1.5,1.4v5.6
	C6.4,15.8,6.5,15.9,6.7,15.9L6.7,15.9z M25.1,15.3c-0.1,0-0.3,0.1-0.3,0.2v5.6c0,0.5-0.4,0.9-1,0.9h-7.4l1.9-1.9
	c0.1-0.1,0.1-0.3,0-0.4c-0.1-0.1-0.3-0.1-0.4,0l-2.3,2.3c0,0,0,0,0,0c0,0,0,0,0,0.1c0,0,0,0,0,0.1c0,0,0,0,0,0c0,0,0,0,0,0
	c0,0,0,0.1,0,0.1s0,0,0,0.1c0,0,0,0,0,0l2.3,2.3c0,0,0.1,0.1,0.2,0.1c0.1,0,0.1,0,0.2-0.1c0.1-0.1,0.1-0.3,0-0.4l-1.9-1.9h7.4
	c0.8,0,1.5-0.6,1.5-1.4v-5.6C25.4,15.5,25.3,15.3,25.1,15.3L25.1,15.3z"/>
</svg>
